REM DIRINDEX 1\2,1\3,1\4,1\5
REM DIRNAME cjc044,folder01,folder02,folder03,folder04
TITLE ""
FILE "1800_105.mp3" MP3
  TRACK 01 AUDIO
    TITLE "2:cjc044_2933"
    INDEX 01 00:00:00
  TRACK 02 AUDIO
    TITLE "0:"
    INDEX 01 00:00:64
  TRACK 03 AUDIO
    TITLE "3:cjc044_2934"
    INDEX 01 00:01:56
  TRACK 04 AUDIO
    TITLE "0:"
    INDEX 01 00:03:21
  TRACK 05 AUDIO
    TITLE "4:cjc044_2935"
    INDEX 01 00:04:03
  TRACK 06 AUDIO
    TITLE "0:"
    INDEX 01 00:04:74
  TRACK 07 AUDIO
    TITLE "5:cjc044_2936"
    INDEX 01 00:05:52
  TRACK 08 AUDIO
    TITLE "0:"
    INDEX 01 00:09:28
  TRACK 09 AUDIO
    TITLE "2:cjc044_2937"
    INDEX 01 00:11:11
  TRACK 10 AUDIO
    TITLE "0:"
    INDEX 01 00:12:20
  TRACK 11 AUDIO
    TITLE "3:cjc044_2938"
    INDEX 01 00:13:04
  TRACK 12 AUDIO
    TITLE "0:"
    INDEX 01 00:14:58
  TRACK 13 AUDIO
    TITLE "4:cjc044_2939"
    INDEX 01 00:15:40
  TRACK 14 AUDIO
    TITLE "0:"
    INDEX 01 00:16:51
  TRACK 15 AUDIO
    TITLE "5:cjc044_2940"
    INDEX 01 00:17:23
  TRACK 16 AUDIO
    TITLE "0:"
    INDEX 01 00:19:67
  TRACK 17 AUDIO
    TITLE "2:cjc044_2941"
    INDEX 01 00:21:51
  TRACK 18 AUDIO
    TITLE "0:"
    INDEX 01 00:23:04
  TRACK 19 AUDIO
    TITLE "3:cjc044_2942"
    INDEX 01 00:23:53
  TRACK 20 AUDIO
    TITLE "0:"
    INDEX 01 00:24:47
  TRACK 21 AUDIO
    TITLE "4:cjc044_2943"
    INDEX 01 00:25:31
  TRACK 22 AUDIO
    TITLE "0:"
    INDEX 01 00:26:56
  TRACK 23 AUDIO
    TITLE "5:cjc044_2944"
    INDEX 01 00:27:39
  TRACK 24 AUDIO
    TITLE "0:"
    INDEX 01 00:30:59
  TRACK 25 AUDIO
    TITLE "2:cjc044_2945"
    INDEX 01 00:32:39
  TRACK 26 AUDIO
    TITLE "0:"
    INDEX 01 00:33:44
  TRACK 27 AUDIO
    TITLE "3:cjc044_2946"
    INDEX 01 00:34:20
  TRACK 28 AUDIO
    TITLE "0:"
    INDEX 01 00:35:21
  TRACK 29 AUDIO
    TITLE "4:cjc044_2947"
    INDEX 01 00:36:03
  TRACK 30 AUDIO
    TITLE "0:"
    INDEX 01 00:37:10
  TRACK 31 AUDIO
    TITLE "5:cjc044_2948"
    INDEX 01 00:37:63
  TRACK 32 AUDIO
    TITLE "0:"
    INDEX 01 00:40:36
  TRACK 33 AUDIO
    TITLE "2:cjc044_2949"
    INDEX 01 00:42:19
  TRACK 34 AUDIO
    TITLE "0:"
    INDEX 01 00:43:31
  TRACK 35 AUDIO
    TITLE "3:cjc044_2950"
    INDEX 01 00:44:14
  TRACK 36 AUDIO
    TITLE "0:"
    INDEX 01 00:45:61
  TRACK 37 AUDIO
    TITLE "4:cjc044_2951"
    INDEX 01 00:46:45
  TRACK 38 AUDIO
    TITLE "0:"
    INDEX 01 00:47:56
  TRACK 39 AUDIO
    TITLE "5:cjc044_2952"
    INDEX 01 00:48:40
  TRACK 40 AUDIO
    TITLE "0:"
    INDEX 01 00:52:51
  TRACK 41 AUDIO
    TITLE "2:cjc044_2953"
    INDEX 01 00:54:27
  TRACK 42 AUDIO
    TITLE "0:"
    INDEX 01 00:55:38
  TRACK 43 AUDIO
    TITLE "3:cjc044_2954"
    INDEX 01 00:56:22
  TRACK 44 AUDIO
    TITLE "0:"
    INDEX 01 00:58:56
  TRACK 45 AUDIO
    TITLE "4:cjc044_2955"
    INDEX 01 00:59:34
  TRACK 46 AUDIO
    TITLE "0:"
    INDEX 01 01:00:45
  TRACK 47 AUDIO
    TITLE "5:cjc044_2956"
    INDEX 01 01:01:27
  TRACK 48 AUDIO
    TITLE "0:"
    INDEX 01 01:04:25
  TRACK 49 AUDIO
    TITLE "2:cjc044_2957"
    INDEX 01 01:06:02
  TRACK 50 AUDIO
    TITLE "0:"
    INDEX 01 01:07:23
  TRACK 51 AUDIO
    TITLE "3:cjc044_2958"
    INDEX 01 01:08:05
  TRACK 52 AUDIO
    TITLE "0:"
    INDEX 01 01:09:16
  TRACK 53 AUDIO
    TITLE "4:cjc044_2959"
    INDEX 01 01:09:67
  TRACK 54 AUDIO
    TITLE "0:"
    INDEX 01 01:11:13
  TRACK 55 AUDIO
    TITLE "5:cjc044_2960"
    INDEX 01 01:11:64
  TRACK 56 AUDIO
    TITLE "0:"
    INDEX 01 01:15:01
  TRACK 57 AUDIO
    TITLE "2:cjc044_2961"
    INDEX 01 01:16:58
  TRACK 58 AUDIO
    TITLE "0:"
    INDEX 01 01:18:02
  TRACK 59 AUDIO
    TITLE "3:cjc044_2962"
    INDEX 01 01:18:56
  TRACK 60 AUDIO
    TITLE "0:"
    INDEX 01 01:19:74
  TRACK 61 AUDIO
    TITLE "4:cjc044_2963"
    INDEX 01 01:20:55
  TRACK 62 AUDIO
    TITLE "0:"
    INDEX 01 01:22:01
  TRACK 63 AUDIO
    TITLE "5:cjc044_2964"
    INDEX 01 01:22:54
  TRACK 64 AUDIO
    TITLE "0:"
    INDEX 01 01:25:74
